<mxfile host="app.diagrams.net" modified="2023-02-06T15:35:23.688Z" agent="5.0 (X11; Linux x86_64) AppleWebKit/537.36 (KHTML, like Gecko) Chrome/109.0.0.0 Safari/537.36" etag="-1iVWxrjV-2jT6R2Ot84" version="20.8.16" type="github">
  <diagram id="C5RBs43oDa-KdzZeNtuy" name="Page-1">
    <mxGraphModel dx="2074" dy="3013" grid="1" gridSize="10" guides="1" tooltips="1" connect="1" arrows="1" fold="1" page="1" pageScale="1" pageWidth="827" pageHeight="1169" math="0" shadow="0">
      <root>
        <mxCell id="WIyWlLk6GJQsqaUBKTNV-0" />
        <mxCell id="WIyWlLk6GJQsqaUBKTNV-1" parent="WIyWlLk6GJQsqaUBKTNV-0" />
        <mxCell id="qninsO8wsC_TDPiI8wJz-2" value="" style="edgeStyle=orthogonalEdgeStyle;rounded=0;orthogonalLoop=1;jettySize=auto;html=1;" edge="1" parent="WIyWlLk6GJQsqaUBKTNV-1" source="qninsO8wsC_TDPiI8wJz-0" target="qninsO8wsC_TDPiI8wJz-1">
          <mxGeometry relative="1" as="geometry" />
        </mxCell>
        <mxCell id="qninsO8wsC_TDPiI8wJz-0" value="start" style="ellipse;whiteSpace=wrap;html=1;" vertex="1" parent="WIyWlLk6GJQsqaUBKTNV-1">
          <mxGeometry x="350" y="-1310" width="110" height="50" as="geometry" />
        </mxCell>
        <mxCell id="qninsO8wsC_TDPiI8wJz-4" value="" style="edgeStyle=orthogonalEdgeStyle;rounded=0;orthogonalLoop=1;jettySize=auto;html=1;" edge="1" parent="WIyWlLk6GJQsqaUBKTNV-1" source="qninsO8wsC_TDPiI8wJz-1" target="qninsO8wsC_TDPiI8wJz-3">
          <mxGeometry relative="1" as="geometry" />
        </mxCell>
        <mxCell id="qninsO8wsC_TDPiI8wJz-1" value="int i, j, k, l, n, o, r;" style="whiteSpace=wrap;html=1;" vertex="1" parent="WIyWlLk6GJQsqaUBKTNV-1">
          <mxGeometry x="345" y="-1180" width="120" height="60" as="geometry" />
        </mxCell>
        <mxCell id="qninsO8wsC_TDPiI8wJz-6" value="" style="edgeStyle=orthogonalEdgeStyle;rounded=0;orthogonalLoop=1;jettySize=auto;html=1;" edge="1" parent="WIyWlLk6GJQsqaUBKTNV-1" source="qninsO8wsC_TDPiI8wJz-3" target="qninsO8wsC_TDPiI8wJz-5">
          <mxGeometry relative="1" as="geometry" />
        </mxCell>
        <mxCell id="qninsO8wsC_TDPiI8wJz-3" value="printf (nenter (space)r:);" style="shape=parallelogram;perimeter=parallelogramPerimeter;whiteSpace=wrap;html=1;fixedSize=1;" vertex="1" parent="WIyWlLk6GJQsqaUBKTNV-1">
          <mxGeometry x="310" y="-1070" width="190" height="60" as="geometry" />
        </mxCell>
        <mxCell id="qninsO8wsC_TDPiI8wJz-113" value="" style="edgeStyle=orthogonalEdgeStyle;rounded=0;orthogonalLoop=1;jettySize=auto;html=1;" edge="1" parent="WIyWlLk6GJQsqaUBKTNV-1" source="qninsO8wsC_TDPiI8wJz-5" target="qninsO8wsC_TDPiI8wJz-111">
          <mxGeometry relative="1" as="geometry" />
        </mxCell>
        <mxCell id="qninsO8wsC_TDPiI8wJz-5" value="scanf (&amp;amp;n, &amp;amp;r)" style="shape=parallelogram;perimeter=parallelogramPerimeter;whiteSpace=wrap;html=1;fixedSize=1;" vertex="1" parent="WIyWlLk6GJQsqaUBKTNV-1">
          <mxGeometry x="320" y="-960" width="170" height="60" as="geometry" />
        </mxCell>
        <mxCell id="qninsO8wsC_TDPiI8wJz-10" style="edgeStyle=orthogonalEdgeStyle;rounded=0;orthogonalLoop=1;jettySize=auto;html=1;exitX=0;exitY=0.5;exitDx=0;exitDy=0;entryX=0.5;entryY=1;entryDx=0;entryDy=0;" edge="1" parent="WIyWlLk6GJQsqaUBKTNV-1" source="qninsO8wsC_TDPiI8wJz-7" target="qninsO8wsC_TDPiI8wJz-111">
          <mxGeometry relative="1" as="geometry">
            <mxPoint x="230" y="-840" as="targetPoint" />
          </mxGeometry>
        </mxCell>
        <mxCell id="qninsO8wsC_TDPiI8wJz-109" value="" style="edgeStyle=orthogonalEdgeStyle;rounded=0;orthogonalLoop=1;jettySize=auto;html=1;" edge="1" parent="WIyWlLk6GJQsqaUBKTNV-1" source="qninsO8wsC_TDPiI8wJz-7" target="qninsO8wsC_TDPiI8wJz-17">
          <mxGeometry relative="1" as="geometry" />
        </mxCell>
        <mxCell id="qninsO8wsC_TDPiI8wJz-114" style="edgeStyle=orthogonalEdgeStyle;rounded=0;orthogonalLoop=1;jettySize=auto;html=1;exitX=0.5;exitY=1;exitDx=0;exitDy=0;" edge="1" parent="WIyWlLk6GJQsqaUBKTNV-1" source="qninsO8wsC_TDPiI8wJz-7">
          <mxGeometry relative="1" as="geometry">
            <mxPoint x="375" y="-610" as="targetPoint" />
          </mxGeometry>
        </mxCell>
        <mxCell id="qninsO8wsC_TDPiI8wJz-7" value="o &amp;lt;= r" style="rhombus;whiteSpace=wrap;html=1;" vertex="1" parent="WIyWlLk6GJQsqaUBKTNV-1">
          <mxGeometry x="320" y="-750" width="110" height="80" as="geometry" />
        </mxCell>
        <mxCell id="qninsO8wsC_TDPiI8wJz-11" value="no" style="text;html=1;align=center;verticalAlign=middle;resizable=0;points=[];autosize=1;strokeColor=none;fillColor=none;" vertex="1" parent="WIyWlLk6GJQsqaUBKTNV-1">
          <mxGeometry x="290" y="-750" width="40" height="30" as="geometry" />
        </mxCell>
        <mxCell id="qninsO8wsC_TDPiI8wJz-12" value="yes" style="text;html=1;align=center;verticalAlign=middle;resizable=0;points=[];autosize=1;strokeColor=none;fillColor=none;" vertex="1" parent="WIyWlLk6GJQsqaUBKTNV-1">
          <mxGeometry x="385" y="-675" width="40" height="30" as="geometry" />
        </mxCell>
        <mxCell id="qninsO8wsC_TDPiI8wJz-19" style="edgeStyle=orthogonalEdgeStyle;rounded=0;orthogonalLoop=1;jettySize=auto;html=1;exitX=0;exitY=0.5;exitDx=0;exitDy=0;" edge="1" parent="WIyWlLk6GJQsqaUBKTNV-1" source="qninsO8wsC_TDPiI8wJz-13">
          <mxGeometry relative="1" as="geometry">
            <mxPoint x="530" y="-550" as="targetPoint" />
            <Array as="points">
              <mxPoint x="550" y="-580" />
              <mxPoint x="530" y="-580" />
            </Array>
          </mxGeometry>
        </mxCell>
        <mxCell id="qninsO8wsC_TDPiI8wJz-120" style="edgeStyle=orthogonalEdgeStyle;rounded=0;orthogonalLoop=1;jettySize=auto;html=1;" edge="1" parent="WIyWlLk6GJQsqaUBKTNV-1" source="qninsO8wsC_TDPiI8wJz-13">
          <mxGeometry relative="1" as="geometry">
            <mxPoint x="680" y="-710" as="targetPoint" />
          </mxGeometry>
        </mxCell>
        <mxCell id="qninsO8wsC_TDPiI8wJz-13" value="i &amp;lt;= n" style="rhombus;whiteSpace=wrap;html=1;" vertex="1" parent="WIyWlLk6GJQsqaUBKTNV-1">
          <mxGeometry x="560" y="-681" width="100" height="80" as="geometry" />
        </mxCell>
        <mxCell id="qninsO8wsC_TDPiI8wJz-18" value="" style="edgeStyle=orthogonalEdgeStyle;rounded=0;orthogonalLoop=1;jettySize=auto;html=1;" edge="1" parent="WIyWlLk6GJQsqaUBKTNV-1" source="qninsO8wsC_TDPiI8wJz-17" target="qninsO8wsC_TDPiI8wJz-13">
          <mxGeometry relative="1" as="geometry" />
        </mxCell>
        <mxCell id="qninsO8wsC_TDPiI8wJz-17" value="i = 1" style="rounded=0;whiteSpace=wrap;html=1;" vertex="1" parent="WIyWlLk6GJQsqaUBKTNV-1">
          <mxGeometry x="490" y="-740" width="80" height="50" as="geometry" />
        </mxCell>
        <mxCell id="qninsO8wsC_TDPiI8wJz-23" style="edgeStyle=orthogonalEdgeStyle;rounded=0;orthogonalLoop=1;jettySize=auto;html=1;exitX=0;exitY=0.5;exitDx=0;exitDy=0;entryX=0.25;entryY=1;entryDx=0;entryDy=0;" edge="1" parent="WIyWlLk6GJQsqaUBKTNV-1" source="qninsO8wsC_TDPiI8wJz-20" target="qninsO8wsC_TDPiI8wJz-17">
          <mxGeometry relative="1" as="geometry">
            <Array as="points">
              <mxPoint x="470" y="-530" />
              <mxPoint x="470" y="-660" />
            </Array>
          </mxGeometry>
        </mxCell>
        <mxCell id="qninsO8wsC_TDPiI8wJz-20" value="i++" style="rounded=0;whiteSpace=wrap;html=1;" vertex="1" parent="WIyWlLk6GJQsqaUBKTNV-1">
          <mxGeometry x="490" y="-550" width="80" height="40" as="geometry" />
        </mxCell>
        <mxCell id="qninsO8wsC_TDPiI8wJz-22" value="no" style="text;html=1;align=center;verticalAlign=middle;resizable=0;points=[];autosize=1;strokeColor=none;fillColor=none;" vertex="1" parent="WIyWlLk6GJQsqaUBKTNV-1">
          <mxGeometry x="510" y="-614" width="40" height="30" as="geometry" />
        </mxCell>
        <mxCell id="qninsO8wsC_TDPiI8wJz-29" style="edgeStyle=orthogonalEdgeStyle;rounded=0;orthogonalLoop=1;jettySize=auto;html=1;exitX=1;exitY=0.75;exitDx=0;exitDy=0;" edge="1" parent="WIyWlLk6GJQsqaUBKTNV-1" source="qninsO8wsC_TDPiI8wJz-24" target="qninsO8wsC_TDPiI8wJz-28">
          <mxGeometry relative="1" as="geometry" />
        </mxCell>
        <mxCell id="qninsO8wsC_TDPiI8wJz-24" value="j = n" style="whiteSpace=wrap;html=1;" vertex="1" parent="WIyWlLk6GJQsqaUBKTNV-1">
          <mxGeometry x="710" y="-645" width="80" height="44" as="geometry" />
        </mxCell>
        <mxCell id="qninsO8wsC_TDPiI8wJz-26" value="yes" style="text;html=1;align=center;verticalAlign=middle;resizable=0;points=[];autosize=1;strokeColor=none;fillColor=none;" vertex="1" parent="WIyWlLk6GJQsqaUBKTNV-1">
          <mxGeometry x="660" y="-700" width="40" height="30" as="geometry" />
        </mxCell>
        <mxCell id="qninsO8wsC_TDPiI8wJz-31" value="" style="edgeStyle=orthogonalEdgeStyle;rounded=0;orthogonalLoop=1;jettySize=auto;html=1;" edge="1" parent="WIyWlLk6GJQsqaUBKTNV-1" source="qninsO8wsC_TDPiI8wJz-28" target="qninsO8wsC_TDPiI8wJz-30">
          <mxGeometry relative="1" as="geometry" />
        </mxCell>
        <mxCell id="qninsO8wsC_TDPiI8wJz-36" value="" style="edgeStyle=orthogonalEdgeStyle;rounded=0;orthogonalLoop=1;jettySize=auto;html=1;" edge="1" parent="WIyWlLk6GJQsqaUBKTNV-1" source="qninsO8wsC_TDPiI8wJz-28" target="qninsO8wsC_TDPiI8wJz-35">
          <mxGeometry relative="1" as="geometry" />
        </mxCell>
        <mxCell id="qninsO8wsC_TDPiI8wJz-28" value="j &amp;gt;= i" style="rhombus;whiteSpace=wrap;html=1;" vertex="1" parent="WIyWlLk6GJQsqaUBKTNV-1">
          <mxGeometry x="714" y="-510" width="90" height="80" as="geometry" />
        </mxCell>
        <mxCell id="qninsO8wsC_TDPiI8wJz-32" style="edgeStyle=orthogonalEdgeStyle;rounded=0;orthogonalLoop=1;jettySize=auto;html=1;entryX=0.25;entryY=1;entryDx=0;entryDy=0;" edge="1" parent="WIyWlLk6GJQsqaUBKTNV-1" source="qninsO8wsC_TDPiI8wJz-30" target="qninsO8wsC_TDPiI8wJz-24">
          <mxGeometry relative="1" as="geometry" />
        </mxCell>
        <mxCell id="qninsO8wsC_TDPiI8wJz-30" value="j--" style="whiteSpace=wrap;html=1;" vertex="1" parent="WIyWlLk6GJQsqaUBKTNV-1">
          <mxGeometry x="610" y="-450" width="70" height="40" as="geometry" />
        </mxCell>
        <mxCell id="qninsO8wsC_TDPiI8wJz-34" value="no" style="text;html=1;align=center;verticalAlign=middle;resizable=0;points=[];autosize=1;strokeColor=none;fillColor=none;" vertex="1" parent="WIyWlLk6GJQsqaUBKTNV-1">
          <mxGeometry x="680" y="-500" width="40" height="30" as="geometry" />
        </mxCell>
        <mxCell id="qninsO8wsC_TDPiI8wJz-38" value="" style="edgeStyle=orthogonalEdgeStyle;rounded=0;orthogonalLoop=1;jettySize=auto;html=1;" edge="1" parent="WIyWlLk6GJQsqaUBKTNV-1" source="qninsO8wsC_TDPiI8wJz-35" target="qninsO8wsC_TDPiI8wJz-37">
          <mxGeometry relative="1" as="geometry" />
        </mxCell>
        <mxCell id="qninsO8wsC_TDPiI8wJz-35" value="k = 1" style="whiteSpace=wrap;html=1;" vertex="1" parent="WIyWlLk6GJQsqaUBKTNV-1">
          <mxGeometry x="810" y="-420" width="74" height="40" as="geometry" />
        </mxCell>
        <mxCell id="qninsO8wsC_TDPiI8wJz-40" value="" style="edgeStyle=orthogonalEdgeStyle;rounded=0;orthogonalLoop=1;jettySize=auto;html=1;" edge="1" parent="WIyWlLk6GJQsqaUBKTNV-1" source="qninsO8wsC_TDPiI8wJz-37" target="qninsO8wsC_TDPiI8wJz-39">
          <mxGeometry relative="1" as="geometry" />
        </mxCell>
        <mxCell id="qninsO8wsC_TDPiI8wJz-48" value="" style="edgeStyle=orthogonalEdgeStyle;rounded=0;orthogonalLoop=1;jettySize=auto;html=1;" edge="1" parent="WIyWlLk6GJQsqaUBKTNV-1" source="qninsO8wsC_TDPiI8wJz-37" target="qninsO8wsC_TDPiI8wJz-47">
          <mxGeometry relative="1" as="geometry" />
        </mxCell>
        <mxCell id="qninsO8wsC_TDPiI8wJz-37" value="k &amp;lt;= i" style="rhombus;whiteSpace=wrap;html=1;" vertex="1" parent="WIyWlLk6GJQsqaUBKTNV-1">
          <mxGeometry x="890" y="-370" width="100" height="80" as="geometry" />
        </mxCell>
        <mxCell id="qninsO8wsC_TDPiI8wJz-41" style="edgeStyle=orthogonalEdgeStyle;rounded=0;orthogonalLoop=1;jettySize=auto;html=1;entryX=0;entryY=0.5;entryDx=0;entryDy=0;" edge="1" parent="WIyWlLk6GJQsqaUBKTNV-1" source="qninsO8wsC_TDPiI8wJz-39" target="qninsO8wsC_TDPiI8wJz-35">
          <mxGeometry relative="1" as="geometry" />
        </mxCell>
        <mxCell id="qninsO8wsC_TDPiI8wJz-39" value="k++" style="whiteSpace=wrap;html=1;" vertex="1" parent="WIyWlLk6GJQsqaUBKTNV-1">
          <mxGeometry x="750" y="-340" width="70" height="30" as="geometry" />
        </mxCell>
        <mxCell id="qninsO8wsC_TDPiI8wJz-42" value="no" style="text;html=1;align=center;verticalAlign=middle;resizable=0;points=[];autosize=1;strokeColor=none;fillColor=none;" vertex="1" parent="WIyWlLk6GJQsqaUBKTNV-1">
          <mxGeometry x="860" y="-365" width="40" height="30" as="geometry" />
        </mxCell>
        <mxCell id="qninsO8wsC_TDPiI8wJz-43" value="yes" style="text;html=1;align=center;verticalAlign=middle;resizable=0;points=[];autosize=1;strokeColor=none;fillColor=none;" vertex="1" parent="WIyWlLk6GJQsqaUBKTNV-1">
          <mxGeometry x="780" y="-505" width="40" height="30" as="geometry" />
        </mxCell>
        <mxCell id="qninsO8wsC_TDPiI8wJz-45" value="yes" style="text;html=1;align=center;verticalAlign=middle;resizable=0;points=[];autosize=1;strokeColor=none;fillColor=none;" vertex="1" parent="WIyWlLk6GJQsqaUBKTNV-1">
          <mxGeometry x="990" y="-365" width="40" height="30" as="geometry" />
        </mxCell>
        <mxCell id="qninsO8wsC_TDPiI8wJz-53" style="edgeStyle=orthogonalEdgeStyle;rounded=0;orthogonalLoop=1;jettySize=auto;html=1;entryX=0.5;entryY=0;entryDx=0;entryDy=0;" edge="1" parent="WIyWlLk6GJQsqaUBKTNV-1" source="qninsO8wsC_TDPiI8wJz-47" target="qninsO8wsC_TDPiI8wJz-49">
          <mxGeometry relative="1" as="geometry" />
        </mxCell>
        <mxCell id="qninsO8wsC_TDPiI8wJz-47" value="L = n" style="whiteSpace=wrap;html=1;" vertex="1" parent="WIyWlLk6GJQsqaUBKTNV-1">
          <mxGeometry x="1000" y="-280" width="80" height="50" as="geometry" />
        </mxCell>
        <mxCell id="qninsO8wsC_TDPiI8wJz-54" style="edgeStyle=orthogonalEdgeStyle;rounded=0;orthogonalLoop=1;jettySize=auto;html=1;entryX=1;entryY=0.5;entryDx=0;entryDy=0;" edge="1" parent="WIyWlLk6GJQsqaUBKTNV-1" source="qninsO8wsC_TDPiI8wJz-49" target="qninsO8wsC_TDPiI8wJz-52">
          <mxGeometry relative="1" as="geometry" />
        </mxCell>
        <mxCell id="qninsO8wsC_TDPiI8wJz-60" style="edgeStyle=orthogonalEdgeStyle;rounded=0;orthogonalLoop=1;jettySize=auto;html=1;" edge="1" parent="WIyWlLk6GJQsqaUBKTNV-1" source="qninsO8wsC_TDPiI8wJz-49">
          <mxGeometry relative="1" as="geometry">
            <mxPoint x="1200" y="-140" as="targetPoint" />
          </mxGeometry>
        </mxCell>
        <mxCell id="qninsO8wsC_TDPiI8wJz-49" value="L &amp;gt;= i" style="rhombus;whiteSpace=wrap;html=1;" vertex="1" parent="WIyWlLk6GJQsqaUBKTNV-1">
          <mxGeometry x="1070" y="-230" width="110" height="80" as="geometry" />
        </mxCell>
        <mxCell id="qninsO8wsC_TDPiI8wJz-55" style="edgeStyle=orthogonalEdgeStyle;rounded=0;orthogonalLoop=1;jettySize=auto;html=1;exitX=0.5;exitY=0;exitDx=0;exitDy=0;entryX=0;entryY=0.5;entryDx=0;entryDy=0;" edge="1" parent="WIyWlLk6GJQsqaUBKTNV-1" source="qninsO8wsC_TDPiI8wJz-52" target="qninsO8wsC_TDPiI8wJz-47">
          <mxGeometry relative="1" as="geometry" />
        </mxCell>
        <mxCell id="qninsO8wsC_TDPiI8wJz-52" value="L --" style="whiteSpace=wrap;html=1;" vertex="1" parent="WIyWlLk6GJQsqaUBKTNV-1">
          <mxGeometry x="940" y="-180" width="70" height="40" as="geometry" />
        </mxCell>
        <mxCell id="qninsO8wsC_TDPiI8wJz-56" value="no" style="text;html=1;align=center;verticalAlign=middle;resizable=0;points=[];autosize=1;strokeColor=none;fillColor=none;" vertex="1" parent="WIyWlLk6GJQsqaUBKTNV-1">
          <mxGeometry x="1040" y="-195" width="40" height="30" as="geometry" />
        </mxCell>
        <mxCell id="qninsO8wsC_TDPiI8wJz-62" value="" style="edgeStyle=orthogonalEdgeStyle;rounded=0;orthogonalLoop=1;jettySize=auto;html=1;" edge="1" parent="WIyWlLk6GJQsqaUBKTNV-1" source="qninsO8wsC_TDPiI8wJz-57">
          <mxGeometry relative="1" as="geometry">
            <mxPoint x="900" y="-110" as="targetPoint" />
          </mxGeometry>
        </mxCell>
        <mxCell id="qninsO8wsC_TDPiI8wJz-57" value="printf(&quot;\n&quot;)" style="shape=parallelogram;perimeter=parallelogramPerimeter;whiteSpace=wrap;html=1;fixedSize=1;" vertex="1" parent="WIyWlLk6GJQsqaUBKTNV-1">
          <mxGeometry x="1140" y="-140" width="120" height="60" as="geometry" />
        </mxCell>
        <mxCell id="qninsO8wsC_TDPiI8wJz-65" value="" style="edgeStyle=orthogonalEdgeStyle;rounded=0;orthogonalLoop=1;jettySize=auto;html=1;" edge="1" parent="WIyWlLk6GJQsqaUBKTNV-1" source="qninsO8wsC_TDPiI8wJz-63" target="qninsO8wsC_TDPiI8wJz-64">
          <mxGeometry relative="1" as="geometry" />
        </mxCell>
        <mxCell id="qninsO8wsC_TDPiI8wJz-63" value="i = 1" style="rounded=0;whiteSpace=wrap;html=1;" vertex="1" parent="WIyWlLk6GJQsqaUBKTNV-1">
          <mxGeometry x="810" y="-130" width="90" height="40" as="geometry" />
        </mxCell>
        <mxCell id="qninsO8wsC_TDPiI8wJz-67" value="" style="edgeStyle=orthogonalEdgeStyle;rounded=0;orthogonalLoop=1;jettySize=auto;html=1;" edge="1" parent="WIyWlLk6GJQsqaUBKTNV-1" source="qninsO8wsC_TDPiI8wJz-64" target="qninsO8wsC_TDPiI8wJz-66">
          <mxGeometry relative="1" as="geometry" />
        </mxCell>
        <mxCell id="qninsO8wsC_TDPiI8wJz-70" style="edgeStyle=orthogonalEdgeStyle;rounded=0;orthogonalLoop=1;jettySize=auto;html=1;exitX=0.5;exitY=1;exitDx=0;exitDy=0;" edge="1" parent="WIyWlLk6GJQsqaUBKTNV-1" source="qninsO8wsC_TDPiI8wJz-64">
          <mxGeometry relative="1" as="geometry">
            <mxPoint x="685" y="10" as="targetPoint" />
          </mxGeometry>
        </mxCell>
        <mxCell id="qninsO8wsC_TDPiI8wJz-64" value="i &amp;lt;= n" style="rhombus;whiteSpace=wrap;html=1;rounded=0;" vertex="1" parent="WIyWlLk6GJQsqaUBKTNV-1">
          <mxGeometry x="645" y="-150" width="80" height="80" as="geometry" />
        </mxCell>
        <mxCell id="qninsO8wsC_TDPiI8wJz-79" value="" style="edgeStyle=orthogonalEdgeStyle;rounded=0;orthogonalLoop=1;jettySize=auto;html=1;" edge="1" parent="WIyWlLk6GJQsqaUBKTNV-1" source="qninsO8wsC_TDPiI8wJz-66" target="qninsO8wsC_TDPiI8wJz-78">
          <mxGeometry relative="1" as="geometry" />
        </mxCell>
        <mxCell id="qninsO8wsC_TDPiI8wJz-66" value="j = 1" style="whiteSpace=wrap;html=1;rounded=0;" vertex="1" parent="WIyWlLk6GJQsqaUBKTNV-1">
          <mxGeometry x="530" y="-165" width="70" height="45" as="geometry" />
        </mxCell>
        <mxCell id="qninsO8wsC_TDPiI8wJz-68" value="yes" style="text;html=1;align=center;verticalAlign=middle;resizable=0;points=[];autosize=1;strokeColor=none;fillColor=none;" vertex="1" parent="WIyWlLk6GJQsqaUBKTNV-1">
          <mxGeometry x="620" y="-155" width="40" height="30" as="geometry" />
        </mxCell>
        <mxCell id="qninsO8wsC_TDPiI8wJz-72" style="edgeStyle=orthogonalEdgeStyle;rounded=0;orthogonalLoop=1;jettySize=auto;html=1;exitX=1;exitY=0.5;exitDx=0;exitDy=0;" edge="1" parent="WIyWlLk6GJQsqaUBKTNV-1" source="qninsO8wsC_TDPiI8wJz-71" target="qninsO8wsC_TDPiI8wJz-63">
          <mxGeometry relative="1" as="geometry" />
        </mxCell>
        <mxCell id="qninsO8wsC_TDPiI8wJz-71" value="i++" style="rounded=0;whiteSpace=wrap;html=1;" vertex="1" parent="WIyWlLk6GJQsqaUBKTNV-1">
          <mxGeometry x="640" y="10" width="80" height="50" as="geometry" />
        </mxCell>
        <mxCell id="qninsO8wsC_TDPiI8wJz-74" value="no" style="text;html=1;align=center;verticalAlign=middle;resizable=0;points=[];autosize=1;strokeColor=none;fillColor=none;" vertex="1" parent="WIyWlLk6GJQsqaUBKTNV-1">
          <mxGeometry x="650" y="-70" width="40" height="30" as="geometry" />
        </mxCell>
        <mxCell id="qninsO8wsC_TDPiI8wJz-81" value="" style="edgeStyle=orthogonalEdgeStyle;rounded=0;orthogonalLoop=1;jettySize=auto;html=1;" edge="1" parent="WIyWlLk6GJQsqaUBKTNV-1" source="qninsO8wsC_TDPiI8wJz-78" target="qninsO8wsC_TDPiI8wJz-80">
          <mxGeometry relative="1" as="geometry" />
        </mxCell>
        <mxCell id="qninsO8wsC_TDPiI8wJz-86" value="" style="edgeStyle=orthogonalEdgeStyle;rounded=0;orthogonalLoop=1;jettySize=auto;html=1;" edge="1" parent="WIyWlLk6GJQsqaUBKTNV-1" source="qninsO8wsC_TDPiI8wJz-78" target="qninsO8wsC_TDPiI8wJz-85">
          <mxGeometry relative="1" as="geometry" />
        </mxCell>
        <mxCell id="qninsO8wsC_TDPiI8wJz-78" value="j &amp;lt;= i+1" style="rhombus;whiteSpace=wrap;html=1;rounded=0;" vertex="1" parent="WIyWlLk6GJQsqaUBKTNV-1">
          <mxGeometry x="374" y="-170" width="80" height="80" as="geometry" />
        </mxCell>
        <mxCell id="qninsO8wsC_TDPiI8wJz-83" style="edgeStyle=orthogonalEdgeStyle;rounded=0;orthogonalLoop=1;jettySize=auto;html=1;entryX=0.365;entryY=1.089;entryDx=0;entryDy=0;entryPerimeter=0;" edge="1" parent="WIyWlLk6GJQsqaUBKTNV-1" source="qninsO8wsC_TDPiI8wJz-80" target="qninsO8wsC_TDPiI8wJz-66">
          <mxGeometry relative="1" as="geometry" />
        </mxCell>
        <mxCell id="qninsO8wsC_TDPiI8wJz-80" value="j--" style="whiteSpace=wrap;html=1;rounded=0;" vertex="1" parent="WIyWlLk6GJQsqaUBKTNV-1">
          <mxGeometry x="380" y="-40" width="70" height="40" as="geometry" />
        </mxCell>
        <mxCell id="qninsO8wsC_TDPiI8wJz-84" value="no" style="text;html=1;align=center;verticalAlign=middle;resizable=0;points=[];autosize=1;strokeColor=none;fillColor=none;" vertex="1" parent="WIyWlLk6GJQsqaUBKTNV-1">
          <mxGeometry x="380" y="-95" width="40" height="30" as="geometry" />
        </mxCell>
        <mxCell id="qninsO8wsC_TDPiI8wJz-89" value="" style="edgeStyle=orthogonalEdgeStyle;rounded=0;orthogonalLoop=1;jettySize=auto;html=1;" edge="1" parent="WIyWlLk6GJQsqaUBKTNV-1" source="qninsO8wsC_TDPiI8wJz-85" target="qninsO8wsC_TDPiI8wJz-88">
          <mxGeometry relative="1" as="geometry" />
        </mxCell>
        <mxCell id="qninsO8wsC_TDPiI8wJz-85" value="k = n" style="whiteSpace=wrap;html=1;rounded=0;" vertex="1" parent="WIyWlLk6GJQsqaUBKTNV-1">
          <mxGeometry x="260" y="-140" width="80" height="40" as="geometry" />
        </mxCell>
        <mxCell id="qninsO8wsC_TDPiI8wJz-93" value="" style="edgeStyle=orthogonalEdgeStyle;rounded=0;orthogonalLoop=1;jettySize=auto;html=1;" edge="1" parent="WIyWlLk6GJQsqaUBKTNV-1" source="qninsO8wsC_TDPiI8wJz-88" target="qninsO8wsC_TDPiI8wJz-92">
          <mxGeometry relative="1" as="geometry" />
        </mxCell>
        <mxCell id="qninsO8wsC_TDPiI8wJz-98" value="" style="edgeStyle=orthogonalEdgeStyle;rounded=0;orthogonalLoop=1;jettySize=auto;html=1;" edge="1" parent="WIyWlLk6GJQsqaUBKTNV-1" source="qninsO8wsC_TDPiI8wJz-88" target="qninsO8wsC_TDPiI8wJz-97">
          <mxGeometry relative="1" as="geometry" />
        </mxCell>
        <mxCell id="qninsO8wsC_TDPiI8wJz-88" value="k &amp;gt;= n" style="rhombus;whiteSpace=wrap;html=1;rounded=0;" vertex="1" parent="WIyWlLk6GJQsqaUBKTNV-1">
          <mxGeometry x="120" y="-100" width="80" height="80" as="geometry" />
        </mxCell>
        <mxCell id="qninsO8wsC_TDPiI8wJz-90" value="yes" style="text;html=1;align=center;verticalAlign=middle;resizable=0;points=[];autosize=1;strokeColor=none;fillColor=none;" vertex="1" parent="WIyWlLk6GJQsqaUBKTNV-1">
          <mxGeometry x="340" y="-160" width="40" height="30" as="geometry" />
        </mxCell>
        <mxCell id="qninsO8wsC_TDPiI8wJz-94" style="edgeStyle=orthogonalEdgeStyle;rounded=0;orthogonalLoop=1;jettySize=auto;html=1;" edge="1" parent="WIyWlLk6GJQsqaUBKTNV-1" source="qninsO8wsC_TDPiI8wJz-92" target="qninsO8wsC_TDPiI8wJz-85">
          <mxGeometry relative="1" as="geometry" />
        </mxCell>
        <mxCell id="qninsO8wsC_TDPiI8wJz-92" value="k--" style="whiteSpace=wrap;html=1;rounded=0;" vertex="1" parent="WIyWlLk6GJQsqaUBKTNV-1">
          <mxGeometry x="150" y="30" width="50" height="40" as="geometry" />
        </mxCell>
        <mxCell id="qninsO8wsC_TDPiI8wJz-95" value="no" style="text;html=1;align=center;verticalAlign=middle;resizable=0;points=[];autosize=1;strokeColor=none;fillColor=none;" vertex="1" parent="WIyWlLk6GJQsqaUBKTNV-1">
          <mxGeometry x="150" y="-25" width="40" height="30" as="geometry" />
        </mxCell>
        <mxCell id="qninsO8wsC_TDPiI8wJz-101" value="" style="edgeStyle=orthogonalEdgeStyle;rounded=0;orthogonalLoop=1;jettySize=auto;html=1;" edge="1" parent="WIyWlLk6GJQsqaUBKTNV-1" source="qninsO8wsC_TDPiI8wJz-97" target="qninsO8wsC_TDPiI8wJz-100">
          <mxGeometry relative="1" as="geometry" />
        </mxCell>
        <mxCell id="qninsO8wsC_TDPiI8wJz-97" value="L = 1" style="rounded=0;whiteSpace=wrap;html=1;" vertex="1" parent="WIyWlLk6GJQsqaUBKTNV-1">
          <mxGeometry x="-20" y="-90" width="80" height="40" as="geometry" />
        </mxCell>
        <mxCell id="qninsO8wsC_TDPiI8wJz-99" value="yes" style="text;html=1;align=center;verticalAlign=middle;resizable=0;points=[];autosize=1;strokeColor=none;fillColor=none;" vertex="1" parent="WIyWlLk6GJQsqaUBKTNV-1">
          <mxGeometry x="80" y="-95" width="40" height="30" as="geometry" />
        </mxCell>
        <mxCell id="qninsO8wsC_TDPiI8wJz-103" value="" style="edgeStyle=orthogonalEdgeStyle;rounded=0;orthogonalLoop=1;jettySize=auto;html=1;" edge="1" parent="WIyWlLk6GJQsqaUBKTNV-1" source="qninsO8wsC_TDPiI8wJz-100" target="qninsO8wsC_TDPiI8wJz-102">
          <mxGeometry relative="1" as="geometry" />
        </mxCell>
        <mxCell id="qninsO8wsC_TDPiI8wJz-106" value="" style="edgeStyle=orthogonalEdgeStyle;rounded=0;orthogonalLoop=1;jettySize=auto;html=1;" edge="1" parent="WIyWlLk6GJQsqaUBKTNV-1" source="qninsO8wsC_TDPiI8wJz-100" target="qninsO8wsC_TDPiI8wJz-105">
          <mxGeometry relative="1" as="geometry" />
        </mxCell>
        <mxCell id="qninsO8wsC_TDPiI8wJz-100" value="L &amp;lt;= i" style="rhombus;whiteSpace=wrap;html=1;rounded=0;" vertex="1" parent="WIyWlLk6GJQsqaUBKTNV-1">
          <mxGeometry x="-170" y="-50" width="80" height="80" as="geometry" />
        </mxCell>
        <mxCell id="qninsO8wsC_TDPiI8wJz-104" style="edgeStyle=orthogonalEdgeStyle;rounded=0;orthogonalLoop=1;jettySize=auto;html=1;entryX=0.413;entryY=1.045;entryDx=0;entryDy=0;entryPerimeter=0;" edge="1" parent="WIyWlLk6GJQsqaUBKTNV-1" source="qninsO8wsC_TDPiI8wJz-102" target="qninsO8wsC_TDPiI8wJz-97">
          <mxGeometry relative="1" as="geometry" />
        </mxCell>
        <mxCell id="qninsO8wsC_TDPiI8wJz-102" value="L++" style="whiteSpace=wrap;html=1;rounded=0;" vertex="1" parent="WIyWlLk6GJQsqaUBKTNV-1">
          <mxGeometry x="-160" y="70" width="60" height="40" as="geometry" />
        </mxCell>
        <mxCell id="qninsO8wsC_TDPiI8wJz-108" value="" style="edgeStyle=orthogonalEdgeStyle;rounded=0;orthogonalLoop=1;jettySize=auto;html=1;" edge="1" parent="WIyWlLk6GJQsqaUBKTNV-1" source="qninsO8wsC_TDPiI8wJz-105" target="qninsO8wsC_TDPiI8wJz-107">
          <mxGeometry relative="1" as="geometry" />
        </mxCell>
        <mxCell id="qninsO8wsC_TDPiI8wJz-105" value="printf&amp;nbsp; (&quot;\n&quot;)" style="whiteSpace=wrap;html=1;rounded=0;" vertex="1" parent="WIyWlLk6GJQsqaUBKTNV-1">
          <mxGeometry x="-340" y="-30" width="120" height="60" as="geometry" />
        </mxCell>
        <mxCell id="qninsO8wsC_TDPiI8wJz-107" value="end" style="ellipse;whiteSpace=wrap;html=1;rounded=0;" vertex="1" parent="WIyWlLk6GJQsqaUBKTNV-1">
          <mxGeometry x="-480" y="-30" width="80" height="60" as="geometry" />
        </mxCell>
        <mxCell id="qninsO8wsC_TDPiI8wJz-111" value="o = 1" style="whiteSpace=wrap;html=1;" vertex="1" parent="WIyWlLk6GJQsqaUBKTNV-1">
          <mxGeometry x="355" y="-860" width="100" height="60" as="geometry" />
        </mxCell>
        <mxCell id="qninsO8wsC_TDPiI8wJz-116" style="edgeStyle=orthogonalEdgeStyle;rounded=0;orthogonalLoop=1;jettySize=auto;html=1;exitX=1;exitY=0.75;exitDx=0;exitDy=0;" edge="1" parent="WIyWlLk6GJQsqaUBKTNV-1" source="qninsO8wsC_TDPiI8wJz-115">
          <mxGeometry relative="1" as="geometry">
            <mxPoint x="450" y="-710" as="targetPoint" />
          </mxGeometry>
        </mxCell>
        <mxCell id="qninsO8wsC_TDPiI8wJz-115" value="printf ( &quot; - &quot; )" style="shape=parallelogram;perimeter=parallelogramPerimeter;whiteSpace=wrap;html=1;fixedSize=1;" vertex="1" parent="WIyWlLk6GJQsqaUBKTNV-1">
          <mxGeometry x="294" y="-610" width="120" height="60" as="geometry" />
        </mxCell>
        <mxCell id="qninsO8wsC_TDPiI8wJz-122" style="edgeStyle=orthogonalEdgeStyle;rounded=0;orthogonalLoop=1;jettySize=auto;html=1;exitX=1;exitY=0.5;exitDx=0;exitDy=0;" edge="1" parent="WIyWlLk6GJQsqaUBKTNV-1" source="qninsO8wsC_TDPiI8wJz-121">
          <mxGeometry relative="1" as="geometry">
            <mxPoint x="750" y="-650" as="targetPoint" />
          </mxGeometry>
        </mxCell>
        <mxCell id="qninsO8wsC_TDPiI8wJz-121" value="printf ( &quot; *&amp;nbsp; &quot;)" style="shape=parallelogram;perimeter=parallelogramPerimeter;whiteSpace=wrap;html=1;fixedSize=1;" vertex="1" parent="WIyWlLk6GJQsqaUBKTNV-1">
          <mxGeometry x="630" y="-770" width="120" height="60" as="geometry" />
        </mxCell>
      </root>
    </mxGraphModel>
  </diagram>
</mxfile>
